<?xml version="1.0" encoding="UTF-8" standalone="no"?>
<svg
   xmlns:dc="http://purl.org/dc/elements/1.1/"
   xmlns:cc="http://creativecommons.org/ns#"
   xmlns:rdf="http://www.w3.org/1999/02/22-rdf-syntax-ns#"
   xmlns:svg="http://www.w3.org/2000/svg"
   xmlns="http://www.w3.org/2000/svg"
   xmlns:sodipodi="http://sodipodi.sourceforge.net/DTD/sodipodi-0.dtd"
   xmlns:inkscape="http://www.inkscape.org/namespaces/inkscape"
   inkscape:version="1.0 (4035a4fb49, 2020-05-01)"
   version="1.1"
   viewBox="0 0 313.9 329.7"
   sodipodi:docname="home-cup-tea-hot - Copy.svg"
   id="svg8246">
  <title
     id="title8313">A hot cup of tea</title>
  <defs
     id="defs8248">
    <filter
       inkscape:collect="always"
       color-interpolation-filters="sRGB"
       id="filter3988">
      <feGaussianBlur
         inkscape:collect="always"
         stdDeviation="4.7426664"
         id="feGaussianBlur3990" />
    </filter>
    <filter
       inkscape:collect="always"
       color-interpolation-filters="sRGB"
       id="filter3982">
      <feGaussianBlur
         inkscape:collect="always"
         stdDeviation="6.3235551"
         id="feGaussianBlur3984" />
    </filter>
    <filter
       inkscape:collect="always"
       color-interpolation-filters="sRGB"
       height="1.1777"
       x="-.18749"
       y="-.088841"
       width="1.375"
       id="filter3962">
      <feGaussianBlur
         inkscape:collect="always"
         stdDeviation="5.9304793"
         id="feGaussianBlur3964" />
    </filter>
    <filter
       inkscape:collect="always"
       color-interpolation-filters="sRGB"
       height="1.1301"
       x="-.21293"
       y="-.065058"
       width="1.4259"
       id="filter3966">
      <feGaussianBlur
         inkscape:collect="always"
         stdDeviation="5.9304793"
         id="feGaussianBlur3968" />
    </filter>
    <filter
       inkscape:collect="always"
       color-interpolation-filters="sRGB"
       height="1.1448"
       x="-.16741"
       y="-.072388"
       width="1.3348"
       id="filter3970">
      <feGaussianBlur
         inkscape:collect="always"
         stdDeviation="5.9304793"
         id="feGaussianBlur3972" />
    </filter>
  </defs>
  <sodipodi:namedview
     inkscape:document-rotation="0"
     inkscape:document-units="px"
     inkscape:pageopacity="0.0"
     inkscape:window-width="1920"
     inkscape:cy="158.02461"
     inkscape:cx="239.33853"
     inkscape:current-layer="g3173"
     borderopacity="1.0"
     showgrid="false"
     inkscape:window-x="1912"
     inkscape:zoom="2.7835938"
     inkscape:window-maximized="1"
     inkscape:window-height="1017"
     pagecolor="#ffffff"
     inkscape:window-y="-8"
     inkscape:pageshadow="2"
     bordercolor="#666666"
     id="base" />
  <g
     transform="translate(-57.163 -33.939)"
     inkscape:groupmode="layer"
     inkscape:label="Layer 1"
     id="layer1">
    <g
       transform="matrix(.68516 0 0 .68516 -33.711 -798.03)"
       id="g3173">
      <path
         sodipodi:cx="358.09909"
         sodipodi:cy="1267.8586"
         transform="translate(3.6043 317.75)"
         d="m575.79 1267.9c0 54.394-97.462 98.49-217.69 98.49s-217.69-44.095-217.69-98.49c0-54.394 97.462-98.49 217.69-98.49s217.69 44.095 217.69 98.49z"
         sodipodi:type="arc"
         style="filter:url(#filter3988);fill:#000000"
         sodipodi:ry="98.489876"
         sodipodi:rx="217.68788"
         id="path3986" />
      <path
         sodipodi:cx="358.09909"
         sodipodi:cy="1267.8586"
         transform="translate(3.6043 313.75)"
         d="m575.79 1267.9c0 54.394-97.462 98.49-217.69 98.49s-217.69-44.095-217.69-98.49c0-54.394 97.462-98.49 217.69-98.49s217.69 44.095 217.69 98.49z"
         sodipodi:type="arc"
         style="fill:#afdde9"
         sodipodi:ry="98.489876"
         sodipodi:rx="217.68788"
         id="path3182" />
      <path
         sodipodi:cx="358.09909"
         sodipodi:cy="1267.8586"
         transform="matrix(.66203 0 0 .66203 124.63 742.24)"
         d="m575.79 1267.9c0 54.394-97.462 98.49-217.69 98.49s-217.69-44.095-217.69-98.49c0-54.394 97.462-98.49 217.69-98.49s217.69 44.095 217.69 98.49z"
         sodipodi:type="arc"
         style="stroke:#216778;fill:#37abc8"
         sodipodi:ry="98.489876"
         sodipodi:rx="217.68788"
         id="path3974" />
      <path
         sodipodi:cx="358.09909"
         sodipodi:cy="1267.8586"
         transform="matrix(.48311 0 0 .53945 188.95 878.16)"
         d="m575.79 1267.9c0 54.394-97.462 98.49-217.69 98.49s-217.69-44.095-217.69-98.49c0-54.394 97.462-98.49 217.69-98.49s217.69 44.095 217.69 98.49z"
         sodipodi:type="arc"
         style="opacity:.8;filter:url(#filter3982);fill:#000000"
         sodipodi:ry="98.489876"
         sodipodi:rx="217.68788"
         id="path3976" />
      <path
         d="m237.95 1441.5 17.125 111.69c1.688 32.163 48.664 57.937 106.38 57.937 58.081 0 105.29-26.112 106.41-58.562l17.125-111.06h-247.03z"
         style="fill:#e6e6e6"
         id="rect3176" />
      <path
         sodipodi:cx="357.85715"
         sodipodi:cy="1117.6659"
         transform="matrix(1.1161 0 0 1.1161 -37.953 191.95)"
         d="m468.57 1117.7c0 34.32-49.568 62.143-110.71 62.143-61.146 0-110.71-27.822-110.71-62.143s49.568-62.143 110.71-62.143c61.146 0 110.71 27.822 110.71 62.143z"
         sodipodi:type="arc"
         style="fill:#f9f9f9"
         sodipodi:ry="62.142857"
         sodipodi:rx="110.71429"
         id="path3172" />
      <path
         sodipodi:cx="357.85715"
         sodipodi:cy="1117.6659"
         transform="translate(3.6043 321.75)"
         d="m468.57 1117.7c0 34.32-49.568 62.143-110.71 62.143-61.146 0-110.71-27.822-110.71-62.143s49.568-62.143 110.71-62.143c61.146 0 110.71 27.822 110.71 62.143z"
         sodipodi:type="arc"
         style="fill:#cccccc"
         sodipodi:ry="62.142857"
         sodipodi:rx="110.71429"
         id="path3180" />
      <path
         sodipodi:cx="357.85715"
         sodipodi:cy="1117.6659"
         transform="matrix(1 0 0 .94311 3.6043 388.87)"
         d="m468.57 1117.7c0 34.32-49.568 62.143-110.71 62.143-61.146 0-110.71-27.822-110.71-62.143s49.568-62.143 110.71-62.143c61.146 0 110.71 27.822 110.71 62.143z"
         sodipodi:type="arc"
         style="fill:#483737"
         sodipodi:ry="62.142857"
         sodipodi:rx="110.71429"
         id="path3168" />
      <path
         d="m334.03 1452c-2.8002-3.1203-5.7954-6.0602-8.7495-9.0336-2.6866-2.7204-5.2011-5.5486-7.1947-8.8152-1.635-2.769-2.687-5.8005-3.6461-8.8523-0.86004-3.0769-1.115-6.2466-0.93717-9.4238 0.15282-2.9242 0.4744-5.7319 1.6493-8.4305 1.3515-2.7363 3.056-5.291 4.8462-7.7573 1.7382-1.9679 3.2392-4.11 4.8229-6.1966 1.1562-1.622 2.5607-3.032 3.7712-4.6105 1.1286-1.8749 2.7302-3.3667 4.1892-4.973 1.7989-1.6367 3.3839-3.4715 4.9983-5.2847 2.2336-2.473 4.3006-5.0746 6.3209-7.7219 1.7487-2.1403 3.0319-4.5301 4.1401-7.0439 1.0862-2.7296 1.6982-5.5684 2.0448-8.4749 0.31278-3.2557 0.28845-6.5275 0.31-9.7939-0.003-2.4638-0.0339-4.9274-0.0506-7.3911 0.17401-2.632-0.21863-5.2035-0.78415-7.7627-0.85976-2.9671-2.1025-5.8071-3.2678-8.6633-1.1535-3.0858-2.6932-5.9463-4.5599-8.6551-1.852-2.8737-4.3466-4.9188-7.1948-6.7278-2.8607-1.9506-6.0995-3.1638-9.2779-4.4667-2.8062-1.0147-5.8148-1.2177-8.7713-1.3591-2.3644-0.089-4.6822-0.2361-6.9533 0.4956-0.37568 0.1785-0.75492 0.3497-1.1271 0.5355-0.85526 0.4271-3.3262 1.8863-2.4948 1.4145 19.95-11.321 13.11-8.0864 9.0252-4.7538-1.8609 1.6648-3.7701 3.2706-5.3773 5.1879-1.9817 2.324-3.912 4.6612-5.5749 7.2274-1.3186 2.2174-2.0743 4.6929-2.565 7.2093-0.43221 2.5583-0.46048 5.1557-0.50934 7.7422 0.0368 2.5058-0.088 5.0212 0.0991 7.5215 0.59632 3.7097 2.6304 6.9972 4.8834 9.9307 1.5462 2.5603 3.4494 4.6622 5.8718 6.3895 2.7489 1.3654 5.8389 1.6926 8.8599 1.9017 2.3457 0.033 4.7254 0.2648 7.0498-0.1062 0.90147-0.1509 1.4462-0.184 2.2922-0.5556 0.33375-0.1466 1.2636-0.7276 0.94654-0.5477-3.941 2.2355-15.628 9.167-11.819 6.7147 1.1219-0.7221 32.391-18.66 1.9889-1.2027 2.2377-1.5414 4.5712-2.9966 6.4025-5.0254 1.2628-1.5904 1.508-3.5255 1.6365-5.4826 0.074-2.0065 0.0346-4.0151 0.0178-6.0224-0.18526-2.4249-0.88373-4.774-1.6845-7.0579-0.92395-3.2805-2.2576-6.3781-3.8838-9.3644-1.3457-2.511-3.5821-4.1829-5.9392-5.669-1.9091-1.0426-4.0344-1.4444-6.1829-1.188-0.38169 0.055-0.76899 0.08-1.1451 0.1652-0.77991 0.1771-1.4693 0.4712-2.168 0.8555-0.35899 0.1974-1.4001 0.8511-1.0433 0.6498 11.802-6.6588 15.16-9.5933 10.907-5.9855-0.95525 0.9381-1.3423 2.1192-1.6453 3.3823l-13.388 6.5072c0.21585-1.4643 0.49053-2.9077 1.3206-4.1703 3.9758-5.0623 0.62869-1.0309 14.36-9.0191 1.4409-0.8382 3.1451-1.0713 4.777-1.1538 2.3961 0.085 4.6633 0.604 6.6784 1.973 2.4577 1.7298 4.8515 3.5961 6.2714 6.3195 1.5966 3.0641 2.9284 6.249 3.9735 9.5446 0.92715 2.404 1.7161 4.8792 2.0496 7.4422 0.0163 2.0325 0.051 4.0653 0.022 6.0979-0.0728 2.1769-0.20739 4.3829-1.2948 6.3295-1.5955 2.3389-3.9247 3.8473-6.2134 5.4564-4.544 2.6705-9.1795 5.191-13.632 8.0114-3.7989 2.4065 15.605-8.9455 11.67-6.7687-6.6166 3.6604-10.449 7.9068-17.184 8.6061-2.3934 0.1253-4.7941 0.065-7.1811-0.1565-3.2123-0.3706-6.4813-0.9056-9.318-2.5523-2.4945-1.8556-4.3581-4.1955-5.9614-6.8584-2.2889-3.2009-4.5182-6.6671-5.4309-10.536-0.30194-2.5462-0.11818-5.1125-0.15385-7.6724 0.004-2.6578 0.0332-5.327 0.40632-7.9633 0.42653-2.6742 1.0824-5.311 2.3448-7.728 1.5719-2.6346 3.4044-5.0809 5.4887-7.3339 1.442-2.131 3.3305-3.8146 5.2931-5.4659 5.5541-5.4243 12.851-9.0343 20.065-11.772 2.3838-0.4038 4.7869-0.2796 7.1923-0.1139 3.0599 0.2585 6.1645 0.6066 9.0342 1.7656 3.2141 1.3509 6.384 2.8334 9.3023 4.7579 3.0107 1.9314 5.6367 4.1285 7.5646 7.1952 1.9011 2.8078 3.5644 5.7294 4.7226 8.9268 1.1744 2.9362 2.5348 5.8093 3.432 8.8485 0.5978 2.6377 1.1782 5.2784 1.0192 8.0044-0.006 2.4818-0.0182 4.9636-0.0321 7.4455-0.0129 3.3212-0.10797 6.6446-0.33148 9.9585-0.23818 3.0114-0.68317 5.9402-1.7343 8.7905-0.98714 2.6881-2.3117 5.192-4.0793 7.459-2.0435 2.6286-3.9998 5.3147-6.223 7.7944-1.5988 1.7948-3.0388 3.7376-4.87 5.307-1.5328 1.45-3.032 3.0363-4.2802 4.7316-1.0724 1.7397-2.5286 3.1061-3.747 4.7237-1.7222 2.0146-3.0534 4.3214-4.9483 6.2018-1.8582 2.3544-3.4812 4.8894-4.9584 7.4975-0.47589 0.8603-0.97271 1.636-1.2406 2.5943-0.48029 1.7183-0.25342 3.5843-0.63253 5.3226-0.29555 3.0123-0.14203 6.0031 0.67724 8.9375 0.87842 2.9496 1.8632 5.8746 3.4121 8.5518 1.9545 3.1338 4.296 5.9583 6.856 8.6215 2.9962 2.9768 5.9598 5.9935 9.1019 8.8178l-12.727 7.7991z"
         style="filter:url(#filter3962);fill:#c8beb7"
         id="path3184" />
      <path
         d="m371.55 1447.3c-2.2223-1.8003-4.444-3.6262-6.7634-5.3029-2.453-1.9385-4.5468-4.224-6.4165-6.717-2.1264-2.6698-3.5853-5.7211-4.771-8.898-1.1821-3.4043-2.0458-6.8981-2.8615-10.404-0.70174-3.6283-1.2511-7.2853-1.6402-10.96-0.30669-3.554-0.44655-7.1206-0.54176-10.686 0.0478-2.3427 0.36452-4.6464 1.3566-6.7793 1.2337-2.3954 2.8845-4.5563 4.5532-6.6624 2.7856-3.2799 5.5587-6.5781 8.4311-9.7827 2.0906-2.5155 4.1311-5.0677 6.2403-7.5685 1.6221-1.8567 3.5681-3.3867 5.3351-5.099 2.0812-1.7904 3.4286-4.03 4.618-6.4638 1.102-2.1843 1.3852-4.5873 1.7693-6.9631 0.63234-3.1882 1.7678-6.2311 2.7588-9.3154 0.76298-2.4711 1.0682-5.0346 1.2129-7.6058 0.0124-1.9744 0.1961-3.971-0.031-5.9372-0.4129-1.8148-0.57957-3.6716-1.1074-5.4572-0.54377-2.3455-1.4507-4.5522-2.4233-6.7439-0.74188-2.108-1.8571-4.0499-2.9231-6.0048-1.3115-2.1164-2.9761-3.9828-4.3269-6.0654-1.6833-2.7144-3.3823-5.4183-5.5112-7.8079-1.8778-2.4395-4.3836-4.1923-6.7917-6.049-2.6523-1.5844-5.1731-3.3795-7.8311-4.952-2.2494-1.4513-4.3952-3.0651-6.5365-4.6741-2.2469-1.6809-4.3152-3.579-6.3507-5.5054-2.0618-2.1403-3.9483-4.3264-5.4847-6.8719-1.1623-2.1661-2.0094-4.4875-2.8251-6.802-0.84197-2.3248-1.1182-4.7611-1.2601-7.2109-0.15154-2.3006-0.22362-4.554 0.50744-6.7609 2.9567-6.647 11.149-9.2683 17.899-11.228 2.1006-0.4593 4.2163-0.8217 6.2604-1.5001l-11.725 9.0403c-2.0761 0.5323-4.1876 0.9193-6.2412 1.535-5.2469 1.866-9.798 5.4775 9.2871-5.98 0.27585-0.1656-0.60913 0.2286-0.87156 0.4147-0.55142 0.3912-0.76185 0.8806-1.0958 1.44-0.0133 0.031-0.71996 1.6534-0.72984 1.689-0.40779 1.4701-0.0367 3.0538-0.11409 4.5485 0.10812 2.313 0.30667 4.6325 1.051 6.8426 0.77895 2.2219 1.6408 4.4296 2.6672 6.5475 1.4484 2.432 3.223 4.5545 5.2502 6.5376 2.009 1.8819 4.0579 3.7272 6.293 5.341 2.1134 1.562 4.1886 3.1892 6.4112 4.5924 2.6515 1.6693 5.2902 3.3621 7.8963 5.1012 2.4817 1.9181 5.0677 3.7341 6.9364 6.3093 2.0857 2.4969 3.9487 5.1733 5.6837 7.9246 1.4058 2.0864 3.0954 3.9771 4.3871 6.1485 1.1497 1.9624 2.2939 3.955 3.0422 6.1108 0.97145 2.2465 1.8673 4.5056 2.4789 6.8823 0.6444 1.8448 0.8902 3.7445 1.2918 5.6516 0.32899 2.051 0.10818 4.1482 0.10937 6.2185-0.13251 2.697-0.42757 5.3868-1.1779 7.9915-0.8892 3.0421-2.1544 5.9629-2.7383 9.0953-0.44678 2.4753-0.57167 5.0262-1.6584 7.348-1.1258 2.5296-2.211 5.0949-4.4108 6.8951-1.6157 1.8454-3.538 3.3618-5.3453 5.0135-2.1734 2.5425-4.411 5.0189-6.409 7.7087-2.9418 3.0702-5.5872 6.4213-8.3789 9.6271-1.5776 2.047-3.2034 4.0851-4.4961 6.3213-0.3031 0.5522-0.68477 1.0644-0.93411 1.6429-0.61098 1.4176-0.53975 3.0584-0.84076 4.5467-0.007 3.5473 0.02 7.0991 0.34771 10.634 0.3721 3.6166 0.99311 7.1928 1.6194 10.772 0.76978 3.453 1.6132 6.89 2.7153 10.254 1.1587 3.032 2.6491 5.9176 4.6589 8.4824 1.7878 2.3763 3.8311 4.5387 6.1927 6.3584 2.2987 1.7607 4.5522 3.5809 6.973 5.1764l-12.671 8.0143z"
         style="filter:url(#filter3966);fill:#c8beb7"
         id="path3186" />
      <path
         d="m391.76 1449c-1.2609-1.9744-2.8282-3.7118-4.2646-5.5561-1.7589-2.3578-3.1742-4.8995-4.4286-7.554-1.7166-3.3486-3.5213-6.6459-5.1186-10.055-1.2471-3.2045-2.1104-6.525-2.5796-9.928-0.41877-3.3944-0.4817-6.8204-0.55839-10.236-0.17552-2.5496 0.11786-5.0592 0.62455-7.5516 0.87473-2.784 2.1521-5.4475 3.5456-8.008 1.6624-2.568 2.9424-5.3238 4.1103-8.1401 1.1065-2.5555 2.7418-4.8114 4.291-7.1058 1.3676-2.1186 2.8988-4.1344 4.617-5.9801 2.1146-2.2624 4.58-4.1565 7.0325-6.0331 2.3222-1.7682 4.7553-3.3841 7.0924-5.1298 2.7091-2.0181 5.4289-4.0366 8.2673-5.8709 2.6836-1.6535 5.3089-3.3927 8.0212-4.9994 4.691-2.6975 9.4049-5.3556 14.073-8.0927 3.7188-2.1804-7.4709 4.3035-11.225 6.4228-0.42535 0.2401 0.81489-0.5399 1.2376-0.7845 4.6685-2.7018 9.3512-5.3791 14.035-8.0543 0.4765-0.2721 1.9204-1.0626 1.4456-0.7875-3.7214 2.1561-7.4571 4.2872-11.186 6.4308 36.54-20.834 3.8837-2.1415 2.9157-1.6009-0.5346 0.2986 1.0342-0.6566 1.5351-1.0088 1.4245-1.0018 2.7816-2.1137 4.1655-3.1704 2.3296-1.6452 4.3435-3.5264 5.7659-6.0067 1.0623-2.0875 1.2436-4.4002 1.3405-6.698 0.057-2.237-0.00014-4.4745 0.01-6.7117-0.0558-2.2425 0.18345-4.5044-0.34413-6.7007-0.7959-1.9617-2.2856-3.5774-3.6778-5.1465-1.5436-1.7715-3.4771-3.1399-5.5228-4.2699-2.0305-0.8593-3.8701-2.0214-5.9922-2.6582-2.0222-0.431-3.8647-1.3861-5.871-1.8873-3.1524-0.7388-5.8235-1.5297-8.7644-2.9244-3.2857-1.2587-6.2207-3.1535-9.2-4.9804-2.423-1.3672-4.0767-3.5809-5.5801-5.8556-1.098-1.795-1.376-3.8417-1.5224-5.8973-0.28611-2.2302 0.19897-4.2704 1.0114-6.3275 1.1457-2.3337 2.5734-4.4914 4.5899-6.143 6.3183-4.375 12.802-9.0579 20.279-11.064 2.3365-0.5515 4.739-0.563 7.1246-0.5583 3.3179 0.2261 6.5144 1.1029 9.7194 1.9211 2.791 0.6956 5.3371 1.849 7.7373 3.4131 1.6986 1.2777 3.1604 2.7982 4.6811 4.2678 0.82645 0.6768 1.45 1.5143 2.0514 2.3843 0 0-12.837 7.554-12.837 7.554-0.55385-0.7946-1.1523-1.5321-1.9044-2.1547-1.4108-1.4336-2.8704-2.8032-4.4813-4.0162-2.2964-1.4223-4.7109-2.4901-7.3577-3.104-3.1373-0.8012-6.3083-1.5789-9.5712-1.5448-2.3165 0.079-4.6518 0.1871-6.8791 0.8946-1.1168 0.3879-1.3599 0.4403-2.4511 0.9541-0.43624 0.2054-1.7035 0.9031-1.2881 0.6582 20.437-12.051 13.185-7.8733 8.9121-5.0625-0.0558 0.038-2.0856 1.3966-2.1853 1.4958-1.0911 1.0857-1.6278 2.751-2.6289 3.9157-0.9042 1.8187-1.5526 3.6101-1.2909 5.6751 0.0857 1.806 0.21153 3.633 1.1322 5.2393 1.3547 2.1515 2.8537 4.1283 5.1413 5.3701 2.8738 1.8662 5.8156 3.5832 9.0118 4.8541 2.8355 1.1934 5.7967 1.8947 8.7755 2.6403 2.0061 0.5869 3.9384 1.3926 5.9569 1.9428 2.1225 0.8076 4.0949 1.9337 6.1379 2.9186 2.1153 1.3033 4.1268 2.7756 5.761 4.6678 1.5648 1.7403 3.1448 3.5492 4.0404 5.7389 0.67138 2.3105 0.50184 4.6553 0.51036 7.0425 0.0361 2.2567 0.0387 4.5142 0.006 6.771-0.0682 2.4721-0.12702 4.9715-1.0814 7.2961-1.2656 2.746-3.0826 4.9277-5.595 6.6467-0.90817 0.6937-1.8375 1.3597-2.7393 2.0616-0.55237 0.4299-2.2878 1.9104-2.9052 2.277-0.95099 0.5644-32.096 18.533-2.9016 1.6088-4.6712 2.6947-9.3361 5.4003-14.014 8.0841-0.47902 0.2748-1.9317 1.0712-1.4556 0.7914 3.7233-2.1887 7.459-4.3564 11.198-6.5183 0.4317-0.2496-0.84577 0.5288-1.2757 0.7814-4.6419 2.727-9.3452 5.351-13.94 8.1573-3.6553 2.2326 7.4145-4.2908 11.122-6.4361-2.7394 1.5777-5.384 3.2684-8.048 4.9667-2.889 1.7235-5.5756 3.7503-8.3012 5.7173-2.2773 1.8458-4.7504 3.3843-7.0746 5.1741-2.4921 1.7229-4.8521 3.6557-7.0701 5.7184-1.6456 1.8735-3.4184 3.6524-4.752 5.7816-1.4426 2.3092-3.214 4.4028-4.3597 6.8942-1.369 2.7607-2.3248 5.739-4.1132 8.2925-1.4518 2.4113-2.5604 4.9885-3.6478 7.5807-0.628 2.37-0.93745 4.8133-0.84373 7.2664-0.009 3.3732 0.0185 6.753 0.39547 10.11 0.45023 3.2571 1.2629 6.4532 2.3839 9.5448 1.5359 3.4209 3.3464 6.7065 5.0523 10.044 1.3033 2.5153 2.7931 4.8958 4.4475 7.1957 1.4505 1.8516 2.9507 3.6633 4.4171 5.4994l-12.893 7.6515z"
         style="filter:url(#filter3970);fill:#c8beb7"
         id="path3188" />
      <g
         id="g3169">
        <path
           d="m486.03 1468.2c-10.578-0.8253-19.998 6.7654-21.37 17.411l-0.68713 5.3309c0.19181-1.4881 0.6116-2.9 1.2022-4.1932 1.3729-3.005 3.7388-5.4096 6.6196-6.8664 0.0131-0.01 0.0222-0.02 0.0349-0.027 0.40127-0.2014 0.81426-0.3703 1.2346-0.534 0.0132-0.01 0.0222-0.022 0.0349-0.027 0.8566-0.3306 1.757-0.5635 2.6773-0.7261 0.47975-0.085 0.94984-0.1563 1.4426-0.1921 0.95876-0.07 1.9263-0.035 2.9184 0.092l28.669 3.6953c0.99205 0.1279 1.9367 0.3404 2.8464 0.6505 0.90974 0.3106 1.7777 0.7123 2.5886 1.1844 0.40532 0.2358 0.81332 0.5115 1.1908 0.7837 0.7422 0.5386 1.4445 1.1463 2.0668 1.8103 2.8417 3.0314 4.3562 7.2716 3.7807 11.736l-5.541 42.988c-0.12787 0.992-0.34009 1.9368-0.65047 2.8464-0.93188 2.7292-2.6477 5.0574-4.84 6.7491-0.73032 0.5636-1.5036 1.0487-2.3313 1.464-1.2422 0.6235-2.5808 1.0706-3.9819 1.3143-1.4007 0.2433-2.8729 0.2913-4.361 0.1l-28.669-3.6953c-1.4778-0.1905-2.8764-0.6142-4.1622-1.1982h-0.0309c-0.43109-0.1968-0.83648-0.3968-1.2418-0.6327-0.41329-0.2405-0.80646-0.5053-1.1908-0.7837-0.37026-0.2668-0.71334-0.5613-1.0549-0.8606-0.007-0.0009-0.0242 0-0.031 0-0.69532-0.6116-1.3203-1.2769-1.8838-2.0073-0.55876-0.724-1.0507-1.5115-1.464-2.3312-0.004-0.011 0.008-0.023 0.004-0.031-0.20384-0.406-0.39981-0.8129-0.56505-1.2386-0.003-0.01 0.007-0.022 0.004-0.031-0.33189-0.8599-0.59457-1.7576-0.75718-2.6814-0.002-0.01 0.006-0.022 0.004-0.031-0.23884-1.3918-0.29403-2.8523-0.10356-4.3299l-1.4422 11.189c-1.4164 10.989 6.29 20.976 17.279 22.393l39.672 5.1135c10.989 1.4164 20.976-6.2901 22.393-17.279l7.6703-59.508c1.4164-10.989-6.29-20.976-17.279-22.393l-39.672-5.1135c-0.3434-0.044-0.6816-0.105-1.0228-0.1319z"
           style="fill:#e6e6e6"
           id="rect3139" />
        <path
           d="m458.43 1534-1.0227 7.9343c-1.023 7.9364 4.537 15.142 12.473 16.165l28.669 3.6954c7.9364 1.0229 15.142-4.537 16.165-12.473l1.0227-7.9344c-1.023 7.9364-8.2283 13.496-16.165 12.473l-28.669-3.6953c-7.9364-1.023-13.496-8.2283-12.473-16.165z"
           style="fill:#cccccc"
           id="rect3143" />
      </g>
    </g>
  </g>
  <metadata
     id="metadata31">
    <rdf:RDF>
      <cc:Work>
        <dc:format>image/svg+xml</dc:format>
        <dc:type
           rdf:resource="http://purl.org/dc/dcmitype/StillImage" />
        <cc:license
           rdf:resource="http://creativecommons.org/licenses/publicdomain/" />
        <dc:publisher>
          <cc:Agent
             rdf:about="http://openclipart.org/">
            <dc:title>Openclipart</dc:title>
          </cc:Agent>
        </dc:publisher>
        <dc:title>A cup of hot tea</dc:title>
        <dc:date>2010-04-19T17:15:59</dc:date>
        <dc:description>A cup of hot tea (or Coffee)</dc:description>
        <dc:source>https://openclipart.org/detail/48949/a-cup-of-hot-tea-by-sheikh_tuhin</dc:source>
        <dc:creator>
          <cc:Agent>
            <dc:title>sheikh_tuhin</dc:title>
          </cc:Agent>
        </dc:creator>
        <dc:subject>
          <rdf:Bag>
            <rdf:li>coffee</rdf:li>
            <rdf:li>cup</rdf:li>
            <rdf:li>drinks</rdf:li>
            <rdf:li>home</rdf:li>
            <rdf:li>hot</rdf:li>
            <rdf:li>tea</rdf:li>
          </rdf:Bag>
        </dc:subject>
      </cc:Work>
      <cc:License
         rdf:about="http://creativecommons.org/licenses/publicdomain/">
        <cc:permits
           rdf:resource="http://creativecommons.org/ns#Reproduction" />
        <cc:permits
           rdf:resource="http://creativecommons.org/ns#Distribution" />
        <cc:permits
           rdf:resource="http://creativecommons.org/ns#DerivativeWorks" />
      </cc:License>
    </rdf:RDF>
  </metadata>
</svg>
